<svg xmlns="http://www.w3.org/2000/svg" width="1920" height="1080" viewBox="0 0 1920 1080">
  <defs>
    <linearGradient id="bg13" x1="0" y1="0" x2="1" y2="1">
      <stop offset="0%" stop-color="#0A0A0B"/>
      <stop offset="55%" stop-color="#171719"/>
      <stop offset="100%" stop-color="#310B12"/>
    </linearGradient>
    <style>
      .kicker { font-family:"Segoe UI",Arial,sans-serif; font-size:28px; fill:#F6C15A; letter-spacing:3px; }
      .title { font-family:"Vazirmatn","IRANSans","Segoe UI",Tahoma,sans-serif; font-size:66px; font-weight:900; fill:#FFFFFF; direction:rtl; unicode-bidi:bidi-override; }
      .book { font-family:"Vazirmatn","IRANSans","Segoe UI",Tahoma,sans-serif; font-size:27px; font-weight:850; fill:#FFFFFF; direction:rtl; unicode-bidi:bidi-override; }
      .author { font-family:"Vazirmatn","IRANSans","Segoe UI",Tahoma,sans-serif; font-size:22px; fill:#D2D2D2; direction:rtl; unicode-bidi:bidi-override; }
      .latin { font-family:"Segoe UI",Arial,sans-serif; font-size:19px; fill:#F6C15A; font-weight:700; }
      .note { font-family:"Vazirmatn","IRANSans","Segoe UI",Tahoma,sans-serif; font-size:27px; fill:#DADADA; direction:rtl; unicode-bidi:bidi-override; }
    </style>
  </defs>

  <rect width="1920" height="1080" fill="url(#bg13)"/>
  <circle cx="290" cy="250" r="310" fill="#D72638" opacity="0.08"/>
  <circle cx="1600" cy="810" r="360" fill="#D72638" opacity="0.09"/>

  <text x="110" y="92" class="kicker">SLIDE 13 / KEY WORKS</text>
  <text x="1740" y="155" text-anchor="start" class="title">آثار کلیدی و متون بنیادین</text>
  <line x1="780" y1="190" x2="1740" y2="190" stroke="#D72638" stroke-width="7" stroke-linecap="round"/>

  <!-- Books grid -->
  <g transform="translate(185,255)">
    <rect x="0" y="0" width="1550" height="690" rx="35" fill="#FFFFFF" opacity="0.045" stroke="#FFFFFF" stroke-opacity="0.12"/>

    <!-- row 1 -->
    <g transform="translate(70,70)">
      <rect x="0" y="0" width="310" height="220" rx="22" fill="#D72638" opacity="0.78"/>
      <rect x="22" y="22" width="266" height="176" rx="12" fill="#000000" opacity="0.22"/>
      <text x="270" y="68" text-anchor="start" class="book">انسان تک‌ساحتی</text>
      <text x="270" y="110" text-anchor="start" class="author">هربرت مارکوزه</text>
      <text x="28" y="185" class="latin">ONE-DIMENSIONAL MAN</text>
    </g>

    <g transform="translate(430,70)">
      <rect x="0" y="0" width="310" height="220" rx="22" fill="#FFFFFF" opacity="0.08" stroke="#FFFFFF" stroke-opacity="0.15"/>
      <rect x="22" y="22" width="266" height="176" rx="12" fill="#D72638" opacity="0.18"/>
      <text x="270" y="68" text-anchor="start" class="book">اروس و تمدن</text>
      <text x="270" y="110" text-anchor="start" class="author">هربرت مارکوزه</text>
      <text x="28" y="185" class="latin">EROS AND CIVILIZATION</text>
    </g>

    <g transform="translate(790,70)">
      <rect x="0" y="0" width="310" height="220" rx="22" fill="#FFFFFF" opacity="0.08" stroke="#FFFFFF" stroke-opacity="0.15"/>
      <rect x="22" y="22" width="266" height="176" rx="12" fill="#D72638" opacity="0.18"/>
      <text x="270" y="68" text-anchor="start" class="book">نخبگان قدرت</text>
      <text x="270" y="110" text-anchor="start" class="author">سی. رایت میلز</text>
      <text x="28" y="185" class="latin">THE POWER ELITE</text>
    </g>

    <g transform="translate(1150,70)">
      <rect x="0" y="0" width="310" height="220" rx="22" fill="#FFFFFF" opacity="0.08" stroke="#FFFFFF" stroke-opacity="0.15"/>
      <rect x="22" y="22" width="266" height="176" rx="12" fill="#D72638" opacity="0.18"/>
      <text x="270" y="68" text-anchor="start" class="book">بیانیه پورت هورون</text>
      <text x="270" y="110" text-anchor="start" class="author">SDS</text>
      <text x="28" y="185" class="latin">PORT HURON STATEMENT</text>
    </g>

    <!-- row 2 -->
    <g transform="translate(70,350)">
      <rect x="0" y="0" width="310" height="220" rx="22" fill="#FFFFFF" opacity="0.08" stroke="#FFFFFF" stroke-opacity="0.15"/>
      <rect x="22" y="22" width="266" height="176" rx="12" fill="#D72638" opacity="0.18"/>
      <text x="270" y="68" text-anchor="start" class="book">دوزخیان زمین</text>
      <text x="270" y="110" text-anchor="start" class="author">فرانتس فانون</text>
      <text x="28" y="185" class="latin">THE WRETCHED OF THE EARTH</text>
    </g>

    <g transform="translate(430,350)">
      <rect x="0" y="0" width="310" height="220" rx="22" fill="#FFFFFF" opacity="0.08" stroke="#FFFFFF" stroke-opacity="0.15"/>
      <rect x="22" y="22" width="266" height="176" rx="12" fill="#D72638" opacity="0.18"/>
      <text x="270" y="68" text-anchor="start" class="book">جامعه نمایش</text>
      <text x="270" y="110" text-anchor="start" class="author">گای دبور</text>
      <text x="28" y="185" class="latin">SOCIETY OF THE SPECTACLE</text>
    </g>

    <g transform="translate(790,350)">
      <rect x="0" y="0" width="310" height="220" rx="22" fill="#FFFFFF" opacity="0.08" stroke="#FFFFFF" stroke-opacity="0.15"/>
      <rect x="22" y="22" width="266" height="176" rx="12" fill="#D72638" opacity="0.18"/>
      <text x="270" y="68" text-anchor="start" class="book">ساختن طبقه کارگر</text>
      <text x="270" y="110" text-anchor="start" class="author">ای. پی. تامپسون</text>
      <text x="28" y="185" class="latin">MAKING OF THE ENGLISH WORKING CLASS</text>
    </g>

    <g transform="translate(1150,350)">
      <rect x="0" y="0" width="310" height="220" rx="22" fill="#FFFFFF" opacity="0.08" stroke="#FFFFFF" stroke-opacity="0.15"/>
      <rect x="22" y="22" width="266" height="176" rx="12" fill="#D72638" opacity="0.18"/>
      <text x="270" y="68" text-anchor="start" class="book">دیالکتیک روشنگری</text>
      <text x="270" y="110" text-anchor="start" class="author">آدورنو و هورکهایمر</text>
      <text x="28" y="185" class="latin">DIALECTIC OF ENLIGHTENMENT</text>
    </g>
  </g>

  <text x="1740" y="1000" text-anchor="start" class="note">این آثار، زبان نقد بیگانگی، صنعت فرهنگ، استعمار، قدرت، دموکراسی مشارکتی و جامعه مصرفی را ساختند.</text>
</svg>
